<svg width="21" height="10" viewBox="0 0 21 10" fill="none" xmlns="http://www.w3.org/2000/svg">
<path opacity="0.9" d="M12.4907 9.8614C12.4399 9.78308 12.3638 9.72309 12.3198 9.72309C12.2741 9.72309 12.2402 9.69976 12.2402 9.6681C12.2402 9.6381 12.291 9.61311 12.3536 9.61311C12.4501 9.61311 12.467 9.57645 12.467 9.36648C12.467 9.13819 12.4552 9.11819 12.3113 9.10319C12.2097 9.09153 12.1488 9.04987 12.137 8.97822C12.1251 8.91823 12.0659 8.82991 12.0049 8.77991C11.8238 8.63661 11.9254 8.50329 12.2131 8.50329C12.4281 8.50329 12.4518 8.48996 12.4281 8.39498C12.4112 8.32832 12.3435 8.28 12.2538 8.27C12.137 8.25667 12.098 8.21501 12.0625 8.05837C12.0371 7.95339 12.0303 7.80674 12.0456 7.73842C12.0693 7.63344 12.1133 7.61344 12.3282 7.61344C12.616 7.61344 12.6549 7.54179 12.4247 7.43347C12.2385 7.34516 12.1945 7.17352 12.335 7.0752C12.3909 7.03521 12.4146 7.00188 12.3858 7.00188C12.2504 7.00021 9.02091 6.82524 7.75655 6.75026C5.70175 6.62861 1.56337 6.34199 1.42288 6.30866C1.27055 6.27367 1.21977 6.13703 1.32302 6.03371C1.38396 5.97205 1.49397 5.95706 1.73094 5.97539C2.02714 5.99872 2.01698 5.99372 1.60399 5.91706C1.03359 5.81208 0.88295 5.74876 0.908339 5.62211C0.93542 5.49213 1.11314 5.50213 2.76172 5.73709C3.52339 5.84541 4.42384 5.94706 4.76575 5.96372L5.38693 5.99372L4.54063 5.8904C3.80605 5.80042 1.70047 5.46214 1.12499 5.34049C0.977734 5.3105 0.926957 5.2705 0.926957 5.18719C0.926957 5.04554 0.94896 5.04721 2.56369 5.31883C3.30843 5.44548 4.40184 5.59878 4.99086 5.66211C6.18752 5.78875 9.55577 6.00205 10.2125 5.99372L10.6356 5.98705L10.2971 5.93873C9.79612 5.8654 5.73052 5.42215 3.43706 5.19052C1.89004 5.03388 1.38057 4.96389 1.20793 4.88057C0.959116 4.76392 0.740772 4.5173 0.818631 4.44231C0.876179 4.38565 3.24072 4.59395 7.36218 5.01888C9.21894 5.21052 10.331 5.30217 10.4952 5.27884L10.749 5.24218L10.4376 5.20385C10.2667 5.18219 8.51314 5.01388 6.54296 4.82891C4.57279 4.64394 2.62801 4.45564 2.22348 4.41232C1.81726 4.36732 1.33656 4.33233 1.1453 4.33233C0.78478 4.33233 0.493655 4.21068 0.683224 4.13903C0.732309 4.1207 2.11685 4.23068 3.76035 4.38399C7.92073 4.77392 8.99045 4.82558 6.06396 4.4973C5.22274 4.40232 4.31213 4.29067 4.03116 4.24901C3.75189 4.20568 2.87343 4.11737 2.08299 4.05238C-0.0395107 3.87741 0.023115 3.8874 0.00280398 3.7091C-0.0191997 3.5158 0.0789703 3.4908 0.632447 3.54413C0.992968 3.57912 1.08098 3.57246 1.1216 3.50247C1.16392 3.42915 1.23162 3.43415 1.66662 3.53746C2.34027 3.69744 2.32673 3.69577 5.27352 3.9124C9.57608 4.22735 10.028 4.22901 6.62759 3.91407C3.71465 3.64411 1.13515 3.35249 1.05052 3.28084C1.01328 3.24918 0.869409 3.21752 0.728924 3.20752C0.480114 3.19085 0.475036 3.18586 0.475036 2.99589V2.80092L0.998045 2.81258L1.51936 2.82425L1.5566 2.59929C1.57691 2.47764 1.62769 2.36099 1.66662 2.346C1.70724 2.331 2.77865 2.40932 4.04301 2.5193C6.91703 2.76926 9.66917 2.97922 10.6644 3.02422C11.0825 3.04255 11.5412 3.07254 11.68 3.08921C11.8712 3.11253 11.9186 3.1042 11.8712 3.05588C11.834 3.01755 10.7304 2.89424 9.10554 2.7476C4.18857 2.301 1.04036 1.98606 0.970964 1.93273C0.933727 1.9044 0.908338 1.77443 0.915109 1.64778C0.923572 1.45948 0.948961 1.41115 1.04544 1.39782C1.10976 1.38782 3.55216 1.59612 6.4651 1.85941C9.37805 2.1227 11.8966 2.33933 12.0574 2.34266C12.2554 2.346 12.3909 2.316 12.4839 2.24768C12.638 2.1327 12.7632 1.82608 12.7548 1.58779C12.7514 1.49947 12.7971 1.37449 12.8563 1.3095C12.9156 1.24452 12.9917 1.11287 13.0256 1.01289C13.0814 0.851248 13.0764 0.832918 12.9748 0.832918C12.9122 0.832918 12.8479 0.796257 12.8309 0.749598C12.7818 0.621287 12.9257 0.48631 13.0713 0.52297C13.1745 0.549632 13.2067 0.521303 13.2642 0.354665C13.3285 0.164697 13.3438 0.156365 13.5469 0.183027C13.7212 0.206356 13.7669 0.191359 13.7889 0.104707C13.8245 -0.0286044 14.0428 -0.036936 14.0936 0.0930421C14.1139 0.146367 14.0919 0.208023 14.0344 0.248016C13.9531 0.30634 13.9887 0.339667 14.3221 0.511305C14.5303 0.61962 14.8316 0.724603 14.9856 0.744599C15.143 0.764596 15.3123 0.792924 15.3698 0.809588C15.4764 0.839583 15.4968 1.00122 15.4037 1.09121C15.3597 1.13453 15.3952 1.16953 15.5255 1.21285C15.6271 1.24618 15.7574 1.27451 15.8167 1.27451C15.9148 1.27451 15.9436 1.3295 15.9216 1.47947C15.9165 1.51614 16.0198 1.57113 16.1552 1.60445C16.6528 1.72277 16.6816 1.73943 16.7019 1.91274C16.712 2.00106 16.773 2.1127 16.839 2.15936C17.7597 2.82258 18.1372 3.04088 18.4249 3.07587C18.7465 3.11587 18.9496 3.25918 18.8921 3.40748C18.8599 3.4908 19.1138 3.7191 19.2374 3.7191C19.2678 3.7191 19.3948 3.80742 19.5133 3.9124C19.9364 4.284 20.8318 4.94223 20.913 4.94223C21.0924 4.94223 20.9858 5.11886 20.671 5.34383C20.412 5.52879 20.3392 5.61211 20.3426 5.72043C20.3477 5.84707 20.3308 5.85874 20.1446 5.84874C19.9872 5.84041 19.8907 5.8804 19.7147 6.02704C18.9327 6.68527 16.6883 8.04337 14.4981 9.18485C14.1088 9.38815 13.7551 9.59311 13.7162 9.6381C13.6772 9.6831 13.5706 9.72142 13.4792 9.72142C13.3776 9.72142 13.2642 9.77141 13.1898 9.84974C13.0002 10.0447 12.6177 10.0514 12.4907 9.8614ZM13.5367 9.33649C13.6078 9.2915 13.6078 9.27983 13.5334 9.2565C13.3421 9.19651 12.8614 9.16652 12.8614 9.21651C12.8614 9.2565 12.968 9.28816 13.4267 9.38315C13.442 9.38648 13.491 9.36482 13.5367 9.33649ZM14.3576 8.95988C14.5269 8.87823 14.6674 8.79158 14.6674 8.76658C14.6674 8.74159 14.5794 8.72159 14.4727 8.72159C14.3153 8.72159 14.2747 8.74492 14.2612 8.84657C14.2493 8.93822 14.2019 8.97655 14.0885 8.98821C14.0039 8.99654 13.9463 9.02821 13.9633 9.05487C14.0073 9.12819 14.0073 9.12819 14.3576 8.95988ZM15.1193 8.52496C15.1193 8.51163 15.0685 8.49996 15.0059 8.49996C14.9433 8.49996 14.8925 8.53829 14.8925 8.58661C14.8925 8.65494 14.9145 8.65994 15.0059 8.61161C15.0685 8.57828 15.1193 8.53829 15.1193 8.52496ZM15.5712 8.3C15.5712 8.28833 15.5171 8.27833 15.4561 8.27833C15.3935 8.27833 15.3563 8.30333 15.3749 8.33332C15.4054 8.38331 15.5712 8.35499 15.5712 8.3ZM13.6518 7.60845C13.4826 7.58512 13.2388 7.56845 13.1153 7.57012L12.8902 7.57345L13.1153 7.61178C13.2388 7.63344 13.4826 7.6501 13.6518 7.6501H13.9633L13.6518 7.60845ZM17.626 7.15352C18.2252 6.79192 18.9022 6.33866 18.9022 6.29867C18.9022 6.21868 18.6839 6.29867 18.6602 6.38698C18.6416 6.45697 18.5637 6.5053 18.4283 6.52863C18.3149 6.54862 18.2252 6.59862 18.2252 6.64194C18.2252 6.78358 18.0052 6.83524 17.2706 6.86857C16.5817 6.90023 16.5343 6.89523 16.4954 6.79692C16.4378 6.64527 16.36 6.60861 16.1061 6.61361L15.881 6.61861L16.0705 6.67194C16.1789 6.70193 16.272 6.76859 16.2872 6.82691C16.3075 6.90023 16.3921 6.94189 16.5783 6.96855C16.7256 6.99022 16.8728 7.03354 16.9134 7.06687C17.0099 7.14352 16.9981 7.38182 16.8965 7.42014C16.8508 7.43681 16.8271 7.47847 16.8457 7.50846C16.8931 7.58512 16.9828 7.54346 17.626 7.15352ZM16.5258 7.42181C16.4869 7.38348 15.2327 7.23517 14.3526 7.16352C12.9917 7.05354 13.3252 7.13852 14.8383 7.29017C16.4023 7.44514 16.5614 7.4568 16.5258 7.42181ZM13.2998 7.0752C13.2473 7.06187 13.1424 7.0602 13.073 7.07187C13.0036 7.08353 13.0476 7.0952 13.1728 7.09686C13.2964 7.09853 13.3539 7.08853 13.2998 7.0752ZM15.4731 6.57195C15.3715 6.56029 15.2073 6.56029 15.1058 6.57195C15.0042 6.58362 15.0855 6.59362 15.2886 6.59362C15.4934 6.59362 15.5746 6.58362 15.4731 6.57195ZM14.4998 6.49863C14.2679 6.47697 13.9226 6.4603 13.7382 6.46197L13.3996 6.4653L13.7957 6.49863C14.0157 6.51696 14.3526 6.53363 14.5574 6.53529L14.9247 6.53862L14.4998 6.49863ZM13.1576 6.40531C13.117 6.39032 13.0442 6.39032 12.9883 6.40531C12.9325 6.42031 12.9629 6.43364 13.0594 6.43364C13.1559 6.43198 13.1982 6.42031 13.1576 6.40531ZM5.81854 6.01538C5.77791 6.00038 5.70513 6.00038 5.64928 6.01538C5.59342 6.03204 5.62389 6.04371 5.72037 6.04371C5.81684 6.04371 5.85916 6.03204 5.81854 6.01538ZM10.9572 6.01538C10.9166 6.00038 10.8438 6.00038 10.788 6.01538C10.7321 6.03204 10.7626 6.04371 10.8591 6.04371C10.9538 6.04371 10.9962 6.03204 10.9572 6.01538ZM19.5403 5.86374C19.6402 5.79042 19.6385 5.78708 19.5268 5.75209C19.4608 5.73209 19.3609 5.75042 19.2932 5.79708C19.1798 5.87374 19.1798 5.87874 19.2797 5.9054C19.3355 5.9204 19.3965 5.93373 19.4117 5.93539C19.4269 5.93706 19.4845 5.9054 19.5403 5.86374ZM12.467 5.83374C12.3875 5.78875 12.0049 5.75042 11.8746 5.77542C11.7646 5.79708 12.1065 5.8754 12.3265 5.87874C12.4772 5.8804 12.5246 5.86707 12.467 5.83374ZM18.1626 5.53213C18.1236 5.4938 17.2029 5.35716 15.143 5.08554C14.0817 4.94556 13.1982 4.83225 13.183 4.83225C13.1678 4.83225 13.1678 4.8789 13.183 4.94056C13.1999 5.00555 13.271 5.05554 13.3607 5.06554C13.4623 5.0772 13.508 5.11386 13.5029 5.17885C13.4978 5.23384 13.5164 5.2755 13.5452 5.2755C13.5723 5.2755 14.1122 5.31383 14.7385 5.36216C15.3647 5.40882 16.3278 5.4688 16.8694 5.49213C17.4111 5.51713 17.9307 5.54046 18.0221 5.54546C18.1118 5.55046 18.1761 5.54379 18.1626 5.53213ZM20.3257 5.32383L20.671 5.09387L20.5356 4.99388C20.412 4.90223 20.3985 4.90223 20.3799 4.98889C20.346 5.15053 20.214 5.20885 19.9483 5.17885C19.7062 5.15053 19.6994 5.15386 19.7113 5.31216C19.7181 5.41715 19.7621 5.48547 19.8349 5.5088C19.8975 5.52879 19.955 5.54712 19.9652 5.55046C19.9736 5.55212 20.1328 5.45214 20.3257 5.32383ZM12.1116 5.46547C12.093 5.44714 12.0439 5.44548 12.0049 5.46047C11.9592 5.4788 11.9711 5.49047 12.0388 5.4938C12.0947 5.49547 12.1285 5.48214 12.1116 5.46547ZM8.10522 4.74059C8.05275 4.72726 7.94781 4.7256 7.88011 4.73726C7.81071 4.74893 7.85472 4.76059 7.97828 4.76226C8.10353 4.76392 8.15938 4.75392 8.10522 4.74059ZM16.3447 4.74226C16.3261 4.72393 16.277 4.72226 16.2381 4.73726C16.1924 4.75393 16.2043 4.76726 16.272 4.77059C16.3278 4.77392 16.3634 4.76059 16.3447 4.74226ZM20.038 4.63894C19.9026 4.54063 19.8179 4.5173 19.7282 4.55063C19.5911 4.60228 19.5031 4.59229 16.6003 4.22068C14.3086 3.92573 14.2172 3.9174 14.2172 3.99239C14.2172 4.04404 16.5597 4.37399 18.3674 4.57896C20.4374 4.81392 20.2732 4.80892 20.038 4.63894ZM15.9808 4.68227C15.9402 4.66727 15.8674 4.66727 15.8116 4.68227C15.7557 4.69727 15.7862 4.7106 15.8827 4.7106C15.9774 4.70893 16.0215 4.69727 15.9808 4.68227ZM15.5577 4.62895C15.5018 4.61395 15.4172 4.61395 15.3597 4.62895C15.3055 4.64228 15.3512 4.65394 15.4578 4.65394C15.5661 4.65394 15.6118 4.64228 15.5577 4.62895ZM14.8383 4.52563C14.3576 4.44398 14.1816 4.42898 14.2341 4.47897C14.2781 4.52063 14.8045 4.59562 15.0634 4.59728C15.1718 4.59728 15.0685 4.56562 14.8383 4.52563ZM14.031 4.40898C14.0124 4.39065 13.9633 4.38899 13.9243 4.40398C13.8786 4.42065 13.8905 4.43398 13.9582 4.43731C14.014 4.44064 14.0479 4.42731 14.031 4.40898ZM13.6248 4.334C13.3709 4.26901 13.1898 4.26901 13.2287 4.33233C13.2473 4.36232 13.381 4.38565 13.5283 4.38232C13.7652 4.37732 13.7754 4.37232 13.6248 4.334ZM12.1116 4.07571C12.093 4.05738 12.0439 4.05571 12.0049 4.07071C11.9592 4.08904 11.9711 4.1007 12.0388 4.10403C12.0947 4.10737 12.1285 4.09404 12.1116 4.07571ZM11.7054 4.01238C11.6089 3.99739 11.5073 3.96406 11.4684 3.93406C11.4312 3.90573 10.898 3.84574 10.2836 3.80242C8.12045 3.65078 7.93766 3.66744 9.73011 3.85074C10.7237 3.95239 11.6123 4.03571 11.7054 4.03571H11.8746L11.7054 4.01238ZM16.7967 3.79742C16.778 3.77909 16.729 3.77742 16.69 3.79242C16.6443 3.81075 16.6562 3.82241 16.7239 3.82575C16.7797 3.82908 16.8153 3.81575 16.7967 3.79742ZM16.3769 3.73743C16.338 3.72243 16.2753 3.72243 16.2364 3.73743C16.1975 3.75243 16.228 3.76576 16.3075 3.76576C16.3854 3.76409 16.4158 3.75243 16.3769 3.73743ZM15.9808 3.68077C15.9402 3.66411 15.8674 3.66411 15.8116 3.68077C15.7557 3.69577 15.7862 3.7091 15.8827 3.7091C15.9774 3.7091 16.0215 3.69744 15.9808 3.68077ZM7.73793 3.62578C7.67023 3.61412 7.55175 3.61412 7.48404 3.62578C7.41295 3.63745 7.4705 3.64744 7.61099 3.64744C7.75316 3.64744 7.80902 3.63745 7.73793 3.62578ZM15.5289 3.62578C15.4883 3.61078 15.4155 3.61078 15.3597 3.62578C15.3038 3.64078 15.3343 3.65411 15.4307 3.65411C15.5272 3.65411 15.5695 3.64078 15.5289 3.62578ZM7.08967 3.57246C7.0372 3.55913 6.93226 3.55746 6.86286 3.56912C6.79347 3.58079 6.83747 3.59245 6.96273 3.59412C7.08628 3.59745 7.14383 3.58745 7.08967 3.57246ZM11.1688 3.55079C10.9657 3.52746 10.4241 3.49747 9.95522 3.48081C9.48637 3.46581 9.22233 3.46414 9.36281 3.47914C9.80796 3.52413 10.9606 3.59245 11.2534 3.59245C11.5175 3.59245 11.5124 3.58912 11.1688 3.55079ZM15.1345 3.57079C15.0939 3.55579 15.0211 3.55579 14.9653 3.57079C14.9094 3.58579 14.9399 3.59912 15.0364 3.59912C15.1312 3.59745 15.1735 3.58579 15.1345 3.57079ZM6.52434 3.51747C6.47187 3.50414 6.36693 3.50247 6.29923 3.51413C6.22983 3.5258 6.27384 3.53746 6.3974 3.53913C6.52265 3.5408 6.5802 3.5308 6.52434 3.51747ZM14.7114 3.51747C14.6555 3.50247 14.5709 3.50247 14.5134 3.51747C14.4592 3.5308 14.5049 3.54246 14.6115 3.54246C14.7199 3.54246 14.7639 3.5308 14.7114 3.51747ZM5.93194 3.45914C5.86424 3.44748 5.74575 3.44748 5.67805 3.45914C5.60696 3.47081 5.66451 3.48081 5.80499 3.48081C5.94548 3.48081 6.00303 3.47081 5.93194 3.45914ZM13.9904 3.41415C13.5334 3.33583 13.2761 3.31583 13.3235 3.36249C13.3624 3.40082 13.9734 3.48414 14.2155 3.4858C14.3238 3.4858 14.2222 3.45414 13.9904 3.41415ZM5.36831 3.40415C5.3006 3.39249 5.18212 3.39249 5.11442 3.40415C5.04333 3.41582 5.10088 3.42581 5.24136 3.42581C5.38185 3.42581 5.4377 3.41582 5.36831 3.40415ZM8.89566 3.40415C8.77718 3.39249 8.59099 3.39249 8.47251 3.40415C8.35742 3.41582 8.4522 3.42581 8.68409 3.42581C8.91597 3.42581 9.01245 3.41582 8.89566 3.40415ZM4.85884 3.34749C4.78944 3.33583 4.66081 3.33583 4.57618 3.34749C4.48816 3.35916 4.54571 3.36916 4.70312 3.36916C4.86222 3.37082 4.92993 3.36083 4.85884 3.34749ZM7.90888 3.34749C7.84118 3.33583 7.7227 3.33583 7.65499 3.34749C7.5839 3.35916 7.64145 3.36916 7.78194 3.36916C7.92242 3.37082 7.97828 3.36083 7.90888 3.34749ZM3.999 3.24585C3.76712 3.20752 3.28135 3.16086 2.9259 3.1442L2.27595 3.1142L3.09516 3.21418C4.08871 3.3375 4.65573 3.35583 3.999 3.24585ZM3.33551 2.84758C3.29489 2.83258 3.22211 2.83258 3.16625 2.84758C3.1104 2.86258 3.14086 2.87591 3.23734 2.87591C3.33212 2.87591 3.37444 2.86258 3.33551 2.84758ZM16.8424 2.47598C16.7865 2.43598 16.6985 2.41432 16.6443 2.42765C16.5919 2.44098 16.2601 2.41099 15.9047 2.36099C15.5509 2.311 14.906 2.25934 14.471 2.24768L13.6806 2.22602L14.5557 2.306C15.0347 2.351 15.7236 2.42098 16.0807 2.46098C16.9998 2.56763 16.971 2.56763 16.8424 2.47598ZM13.1999 1.80775C13.1999 1.75276 13.034 1.72443 13.0036 1.77443C12.985 1.80442 13.0222 1.82942 13.0848 1.82942C13.1474 1.83108 13.1999 1.81942 13.1999 1.80775ZM15.2192 1.46115C15.1633 1.44615 15.0787 1.44615 15.0211 1.46115C14.967 1.47448 15.0127 1.48614 15.1193 1.48614C15.2276 1.48614 15.2733 1.47448 15.2192 1.46115ZM14.7672 1.40616C14.7114 1.39116 14.6268 1.39116 14.5692 1.40616C14.5151 1.41949 14.5608 1.43115 14.6674 1.43115C14.7757 1.43115 14.8214 1.41949 14.7672 1.40616ZM14.2882 1.34783C14.2188 1.33617 14.0902 1.33617 14.0056 1.34783C13.9193 1.3595 13.9751 1.36949 14.1325 1.36949C14.2899 1.36949 14.3576 1.3595 14.2882 1.34783ZM13.6383 1.29117C13.5537 1.27951 13.4132 1.27951 13.3285 1.29117C13.2439 1.30284 13.315 1.31284 13.4843 1.31284C13.6518 1.3145 13.7229 1.30284 13.6383 1.29117ZM14.8265 1.07621C14.7808 1.03288 13.7822 0.887908 13.5232 0.886242C13.1356 0.884575 13.3082 0.986226 13.7551 1.02289C13.992 1.04122 14.2409 1.06621 14.3035 1.07454C14.51 1.1062 14.8586 1.10787 14.8265 1.07621ZM13.7652 0.496308C13.5063 0.356332 13.4098 0.357997 13.6248 0.497973C13.7212 0.561296 13.8312 0.607955 13.8786 0.606289C13.9243 0.602956 13.8719 0.552965 13.7652 0.496308Z" fill="#EBEEF0"/>
</svg>
