<svg width="21" height="10" viewBox="0 0 21 10" fill="none" xmlns="http://www.w3.org/2000/svg">
<path opacity="0.9" d="M8.50928 0.1386C8.56006 0.21692 8.63623 0.276911 8.68023 0.276911C8.72593 0.276911 8.75979 0.30024 8.75979 0.331901C8.75979 0.361896 8.70901 0.386892 8.64638 0.386892C8.5499 0.386892 8.53298 0.423553 8.53298 0.633517C8.53298 0.861812 8.54483 0.881809 8.6887 0.896806C8.79025 0.908471 8.85119 0.95013 8.86303 1.02178C8.87488 1.08177 8.93412 1.17009 8.99506 1.22009C9.17616 1.36339 9.07461 1.49671 8.78687 1.49671C8.57191 1.49671 8.54821 1.51004 8.57191 1.60502C8.58884 1.67168 8.65654 1.72 8.74624 1.73C8.86303 1.74333 8.90196 1.78499 8.93751 1.94163C8.9629 2.04661 8.96967 2.19326 8.95443 2.26158C8.93074 2.36656 8.88673 2.38656 8.67177 2.38656C8.38403 2.38656 8.3451 2.45821 8.57529 2.56653C8.76148 2.65484 8.80549 2.82648 8.665 2.9248C8.60914 2.96479 8.58545 2.99812 8.61422 2.99812C8.74963 2.99979 11.9791 3.17476 13.2435 3.24974C15.2983 3.37139 19.4366 3.65801 19.5771 3.69134C19.7294 3.72633 19.7802 3.86297 19.677 3.96629C19.616 4.02795 19.506 4.04294 19.2691 4.02461C18.9729 4.00128 18.983 4.00628 19.396 4.08294C19.9664 4.18792 20.1171 4.25124 20.0917 4.37789C20.0646 4.50787 19.8869 4.49787 18.2383 4.26291C17.4766 4.15459 16.5762 4.05294 16.2343 4.03628L15.6131 4.00628L16.4594 4.1096C17.194 4.19958 19.2995 4.53786 19.875 4.65951C20.0223 4.6895 20.073 4.7295 20.073 4.81281C20.073 4.95446 20.051 4.95279 18.4363 4.68117C17.6916 4.55452 16.5982 4.40122 16.0091 4.33789C14.8125 4.21125 11.4442 3.99795 10.7875 4.00628L10.3644 4.01295L10.7029 4.06127C11.2039 4.1346 15.2695 4.57785 17.5629 4.80948C19.11 4.96612 19.6194 5.03611 19.7921 5.11943C20.0409 5.23608 20.2592 5.4827 20.1814 5.55769C20.1238 5.61435 17.7593 5.40605 13.6378 4.98112C11.7811 4.78948 10.669 4.69783 10.5048 4.72116L10.251 4.75782L10.5624 4.79615C10.7333 4.81781 12.4869 4.98612 14.457 5.17109C16.4272 5.35606 18.372 5.54436 18.7765 5.58768C19.1827 5.63268 19.6634 5.66767 19.8547 5.66767C20.2152 5.66767 20.5063 5.78932 20.3168 5.86097C20.2677 5.8793 18.8832 5.76932 17.2397 5.61601C13.0793 5.22608 12.0096 5.17442 14.936 5.5027C15.7773 5.59768 16.6879 5.70933 16.9688 5.75099C17.2481 5.79432 18.1266 5.88263 18.917 5.94762C21.0395 6.12259 20.9769 6.1126 20.9972 6.2909C21.0192 6.4842 20.921 6.5092 20.3676 6.45587C20.007 6.42088 19.919 6.42754 19.8784 6.49753C19.8361 6.57085 19.7684 6.56585 19.3334 6.46254C18.6597 6.30256 18.6733 6.30423 15.7265 6.0876C11.4239 5.77265 10.972 5.77099 14.3724 6.08593C17.2854 6.35589 19.8649 6.64751 19.9495 6.71916C19.9867 6.75082 20.1306 6.78248 20.2711 6.79248C20.5199 6.80915 20.525 6.81414 20.525 7.00411V7.19908L20.002 7.18742L19.4806 7.17575L19.4434 7.40071C19.4231 7.52236 19.3723 7.63901 19.3334 7.654C19.2928 7.669 18.2214 7.59068 16.957 7.4807C14.083 7.23074 11.3308 7.02078 10.3356 6.97578C9.91752 6.95745 9.45882 6.92746 9.32003 6.91079C9.12877 6.88747 9.08138 6.8958 9.12877 6.94412C9.16601 6.98245 10.2696 7.10576 11.8945 7.2524C16.8114 7.699 19.9596 8.01394 20.029 8.06727C20.0663 8.0956 20.0917 8.22557 20.0849 8.35222C20.0764 8.54052 20.051 8.58885 19.9546 8.60218C19.8902 8.61218 17.4478 8.40388 14.5349 8.14059C11.622 7.8773 9.10338 7.66067 8.94258 7.65734C8.74455 7.654 8.60915 7.684 8.51605 7.75232C8.36203 7.8673 8.23678 8.17392 8.24524 8.41221C8.24862 8.50053 8.20293 8.62551 8.14368 8.6905C8.08444 8.75548 8.00828 8.88713 7.97443 8.98711C7.91857 9.14875 7.92365 9.16708 8.0252 9.16708C8.08783 9.16708 8.15215 9.20374 8.16907 9.2504C8.21816 9.37871 8.07429 9.51369 7.92872 9.47703C7.82548 9.45037 7.79332 9.4787 7.73577 9.64534C7.67145 9.8353 7.65622 9.84364 7.45311 9.81697C7.27877 9.79364 7.23307 9.80864 7.21107 9.89529C7.17552 10.0286 6.95718 10.0369 6.9064 9.90696C6.88609 9.85363 6.90809 9.79198 6.96564 9.75198C7.04689 9.69366 7.01134 9.66033 6.6779 9.4887C6.46971 9.38038 6.16843 9.2754 6.01441 9.2554C5.857 9.2354 5.68774 9.20708 5.63019 9.19041C5.52356 9.16042 5.50325 8.99878 5.59634 8.90879C5.64035 8.86547 5.6048 8.83047 5.47447 8.78715C5.37292 8.75382 5.24259 8.72549 5.18335 8.72549C5.08518 8.72549 5.0564 8.6705 5.07841 8.52053C5.08349 8.48386 4.98024 8.42887 4.84483 8.39555C4.34721 8.27723 4.31844 8.26057 4.29812 8.08726C4.28797 7.99894 4.22703 7.8873 4.16102 7.84064C3.24026 7.17742 2.86281 6.95912 2.57507 6.92413C2.25348 6.88413 2.05037 6.74082 2.10792 6.59252C2.14007 6.5092 1.88619 6.2809 1.76263 6.2809C1.73216 6.2809 1.60522 6.19258 1.48674 6.0876C1.06359 5.716 0.168209 5.05777 0.086965 5.05777C-0.0924493 5.05777 0.0141862 4.88114 0.329008 4.65617C0.587973 4.47121 0.660754 4.38789 0.657369 4.27957C0.652291 4.15293 0.669217 4.14126 0.855401 4.15126C1.01281 4.15959 1.10929 4.1196 1.28532 3.97296C2.06729 3.31473 4.31166 1.95663 6.50187 0.815153C6.89117 0.611854 7.24492 0.406888 7.28385 0.361896C7.32278 0.316904 7.42941 0.278577 7.52081 0.278577C7.62237 0.278577 7.73577 0.228585 7.81024 0.150265C7.99981 -0.0447023 8.38234 -0.0513678 8.50928 0.1386ZM7.46326 0.663512C7.39218 0.708505 7.39218 0.720169 7.46665 0.743499C7.65791 0.803489 8.13861 0.833483 8.13861 0.783492C8.13861 0.743498 8.03197 0.711837 7.57328 0.616853C7.55805 0.61352 7.50896 0.635184 7.46326 0.663512ZM6.64236 1.04012C6.4731 1.12177 6.33262 1.20842 6.33262 1.23342C6.33262 1.25841 6.42063 1.27841 6.52726 1.27841C6.68467 1.27841 6.7253 1.25508 6.73884 1.15343C6.75068 1.06178 6.79808 1.02345 6.91148 1.01179C6.99611 1.00346 7.05366 0.971794 7.03673 0.945131C6.99272 0.87181 6.99272 0.87181 6.64236 1.04012ZM5.88069 1.47504C5.88069 1.48837 5.93147 1.50004 5.9941 1.50004C6.05672 1.50004 6.1075 1.46171 6.1075 1.41339C6.1075 1.34506 6.0855 1.34006 5.9941 1.38839C5.93147 1.42172 5.88069 1.46171 5.88069 1.47504ZM5.42877 1.7C5.42877 1.71167 5.48294 1.72167 5.54387 1.72167C5.60649 1.72167 5.64373 1.69667 5.62511 1.66668C5.59465 1.61669 5.42877 1.64501 5.42877 1.7ZM7.34817 2.39155C7.51743 2.41488 7.76116 2.43155 7.88472 2.42988L8.10983 2.42655L7.88472 2.38822C7.76116 2.36656 7.51743 2.3499 7.34817 2.3499H7.03673L7.34817 2.39155ZM3.37397 2.84648C2.7748 3.20808 2.09776 3.66134 2.09776 3.70133C2.09776 3.78132 2.31611 3.70133 2.3398 3.61302C2.35842 3.54303 2.43628 3.4947 2.57168 3.47137C2.68509 3.45138 2.7748 3.40138 2.7748 3.35806C2.7748 3.21642 2.99483 3.16476 3.72942 3.13143C4.4183 3.09977 4.46569 3.10477 4.50462 3.20308C4.56217 3.35473 4.64003 3.39139 4.89392 3.38639L5.11903 3.38139L4.92946 3.32806C4.82113 3.29807 4.72804 3.23141 4.71281 3.17309C4.6925 3.09977 4.60787 3.05811 4.42168 3.03145C4.27443 3.00978 4.12717 2.96646 4.08655 2.93313C3.99007 2.85648 4.00192 2.61818 4.10348 2.57986C4.14918 2.56319 4.17287 2.52153 4.15425 2.49154C4.10686 2.41488 4.01716 2.45654 3.37397 2.84648ZM4.47415 2.57819C4.51308 2.61652 5.76729 2.76483 6.64744 2.83648C8.00828 2.94646 7.67484 2.86148 6.16166 2.70983C4.59771 2.55486 4.43861 2.5432 4.47415 2.57819ZM7.70023 2.9248C7.7527 2.93813 7.85764 2.9398 7.92703 2.92813C7.99643 2.91647 7.95242 2.9048 7.82717 2.90314C7.70361 2.90147 7.64606 2.91147 7.70023 2.9248ZM5.52694 3.42805C5.6285 3.43971 5.79268 3.43971 5.89423 3.42805C5.99579 3.41638 5.91455 3.40638 5.71144 3.40638C5.50663 3.40638 5.42539 3.41638 5.52694 3.42805ZM6.50018 3.50137C6.73206 3.52303 7.07735 3.5397 7.26184 3.53803L7.60036 3.5347L7.2043 3.50137C6.98426 3.48304 6.64744 3.46637 6.44263 3.46471L6.07534 3.46138L6.50018 3.50137ZM7.8424 3.59469C7.88302 3.60968 7.95581 3.60968 8.01166 3.59469C8.06752 3.57969 8.03705 3.56636 7.94057 3.56636C7.8441 3.56802 7.80178 3.57969 7.8424 3.59469ZM15.1815 3.98462C15.2221 3.99962 15.2949 3.99962 15.3507 3.98462C15.4066 3.96796 15.3761 3.95629 15.2796 3.95629C15.1832 3.95629 15.1408 3.96796 15.1815 3.98462ZM10.0428 3.98462C10.0834 3.99962 10.1562 3.99962 10.212 3.98462C10.2679 3.96796 10.2374 3.95629 10.1409 3.95629C10.0462 3.95629 10.0038 3.96796 10.0428 3.98462ZM1.45965 4.13626C1.35979 4.20958 1.36148 4.21292 1.4732 4.24791C1.53921 4.26791 1.63907 4.24958 1.70677 4.20292C1.82018 4.12626 1.82018 4.12126 1.72031 4.0946C1.66446 4.0796 1.60353 4.06627 1.58829 4.06461C1.57306 4.06294 1.51551 4.0946 1.45965 4.13626ZM8.53298 4.16626C8.61253 4.21125 8.99506 4.24958 9.12538 4.22458C9.2354 4.20292 8.8935 4.1246 8.67346 4.12126C8.52282 4.1196 8.47543 4.13293 8.53298 4.16626ZM2.83742 4.46787C2.87635 4.5062 3.79712 4.64284 5.857 4.91446C6.91825 5.05444 7.80178 5.16775 7.81702 5.16775C7.83225 5.16775 7.83225 5.1211 7.81702 5.05944C7.80009 4.99445 7.729 4.94446 7.63929 4.93446C7.53774 4.9228 7.49204 4.88614 7.49712 4.82115C7.50219 4.76616 7.48357 4.7245 7.4548 4.7245C7.42772 4.7245 6.88778 4.68617 6.26153 4.63784C5.63527 4.59118 4.67219 4.5312 4.13056 4.50787C3.58893 4.48287 3.0693 4.45954 2.97791 4.45454C2.8882 4.44954 2.82388 4.45621 2.83742 4.46787ZM0.674293 4.67617L0.329008 4.90613L0.464412 5.00612C0.587971 5.09777 0.601513 5.09777 0.620132 5.01111C0.653984 4.84947 0.786004 4.79115 1.05174 4.82115C1.29378 4.84947 1.30055 4.84614 1.2887 4.68784C1.28193 4.58285 1.23793 4.51453 1.16515 4.4912C1.10252 4.47121 1.04497 4.45288 1.03482 4.44954C1.02635 4.44788 0.867248 4.54786 0.674293 4.67617ZM8.88842 4.53453C8.90704 4.55286 8.95613 4.55452 8.99506 4.53953C9.04076 4.5212 9.02891 4.50953 8.9612 4.5062C8.90535 4.50453 8.8715 4.51786 8.88842 4.53453ZM12.8948 5.25941C12.9472 5.27274 13.0522 5.2744 13.1199 5.26274C13.1893 5.25107 13.1453 5.23941 13.0217 5.23774C12.8965 5.23608 12.8406 5.24608 12.8948 5.25941ZM4.65526 5.25774C4.67388 5.27607 4.72296 5.27774 4.76189 5.26274C4.80759 5.24607 4.79575 5.23274 4.72804 5.22941C4.67219 5.22608 4.63664 5.23941 4.65526 5.25774ZM0.962034 5.36106C1.09744 5.45937 1.18207 5.4827 1.27178 5.44937C1.40888 5.39772 1.49689 5.40771 4.39968 5.77932C6.69144 6.07427 6.78284 6.0826 6.78284 6.00761C6.78284 5.95596 4.4403 5.62601 2.63262 5.42104C0.562583 5.18608 0.726764 5.19108 0.962034 5.36106ZM5.01917 5.31773C5.05979 5.33273 5.13257 5.33273 5.18843 5.31773C5.24428 5.30273 5.21381 5.2894 5.11734 5.2894C5.02255 5.29107 4.97854 5.30273 5.01917 5.31773ZM5.44231 5.37105C5.49817 5.38605 5.5828 5.38605 5.64035 5.37105C5.69451 5.35772 5.64881 5.34606 5.54218 5.34606C5.43385 5.34606 5.38815 5.35772 5.44231 5.37105ZM6.16166 5.47437C6.64236 5.55602 6.81839 5.57102 6.76592 5.52103C6.72191 5.47937 6.19552 5.40438 5.93655 5.40272C5.82822 5.40272 5.93147 5.43438 6.16166 5.47437ZM6.96903 5.59102C6.98765 5.60935 7.03673 5.61101 7.07566 5.59602C7.12136 5.57935 7.10951 5.56602 7.04181 5.56269C6.98595 5.55936 6.9521 5.57269 6.96903 5.59102ZM7.37525 5.666C7.62914 5.73099 7.81024 5.73099 7.77131 5.66767C7.7527 5.63768 7.61898 5.61435 7.47173 5.61768C7.23476 5.62268 7.22461 5.62768 7.37525 5.666ZM8.88842 5.92429C8.90704 5.94262 8.95613 5.94429 8.99506 5.92929C9.04076 5.91096 9.02891 5.8993 8.9612 5.89597C8.90535 5.89263 8.8715 5.90596 8.88842 5.92429ZM9.29464 5.98762C9.39112 6.00261 9.49268 6.03594 9.53161 6.06594C9.56884 6.09427 10.102 6.15426 10.7164 6.19758C12.8795 6.34922 13.0623 6.33256 11.2699 6.14926C10.2763 6.04761 9.38774 5.96429 9.29464 5.96429H9.12538L9.29464 5.98762ZM4.20334 6.20268C4.22196 6.22091 4.27104 6.22258 4.30997 6.20758C4.35567 6.18925 4.34382 6.17759 4.27612 6.17425C4.22027 6.17092 4.18472 6.18425 4.20334 6.20268ZM4.6231 6.26257C4.66203 6.27757 4.72466 6.27757 4.76359 6.26257C4.80252 6.24757 4.77205 6.23424 4.6925 6.23424C4.61464 6.23591 4.58417 6.24757 4.6231 6.26257ZM5.01917 6.31923C5.05979 6.33589 5.13257 6.33589 5.18843 6.31923C5.24428 6.30423 5.21381 6.2909 5.11734 6.2909C5.02255 6.2909 4.97854 6.30256 5.01917 6.31923ZM13.2621 6.37422C13.3298 6.38588 13.4483 6.38588 13.516 6.37422C13.587 6.36255 13.5295 6.35256 13.389 6.35256C13.2468 6.35256 13.191 6.36255 13.2621 6.37422ZM5.47109 6.37422C5.51171 6.38922 5.58449 6.38922 5.64035 6.37422C5.6962 6.35922 5.66573 6.34589 5.56926 6.34589C5.47278 6.34589 5.43047 6.35922 5.47109 6.37422ZM13.9103 6.42754C13.9628 6.44087 14.0677 6.44254 14.1371 6.43088C14.2065 6.41921 14.1625 6.40755 14.0373 6.40588C13.9137 6.40255 13.8562 6.41255 13.9103 6.42754ZM9.83119 6.44921C10.0343 6.47254 10.5759 6.50253 11.0448 6.51919C11.5136 6.53419 11.7777 6.53586 11.6372 6.52086C11.192 6.47587 10.0394 6.40755 9.74656 6.40755C9.48252 6.40755 9.4876 6.41088 9.83119 6.44921ZM5.86546 6.42921C5.90608 6.44421 5.97886 6.44421 6.03472 6.42921C6.09057 6.41421 6.06011 6.40088 5.96363 6.40088C5.86885 6.40255 5.82653 6.41421 5.86546 6.42921ZM14.4757 6.48253C14.5281 6.49586 14.6331 6.49753 14.7008 6.48587C14.7702 6.4742 14.7262 6.46254 14.6026 6.46087C14.4773 6.4592 14.4198 6.4692 14.4757 6.48253ZM6.28861 6.48253C6.34446 6.49753 6.42909 6.49753 6.48664 6.48253C6.5408 6.4692 6.4951 6.45754 6.38847 6.45754C6.28015 6.45754 6.23614 6.4692 6.28861 6.48253ZM15.0681 6.54086C15.1358 6.55252 15.2542 6.55252 15.3219 6.54086C15.393 6.52919 15.3355 6.51919 15.195 6.51919C15.0545 6.51919 14.997 6.52919 15.0681 6.54086ZM7.00965 6.58585C7.46665 6.66417 7.72392 6.68417 7.67653 6.63751C7.6376 6.59918 7.02658 6.51586 6.78454 6.5142C6.67621 6.5142 6.77776 6.54586 7.00965 6.58585ZM15.6317 6.59585C15.6994 6.60751 15.8179 6.60751 15.8856 6.59585C15.9567 6.58418 15.8991 6.57419 15.7586 6.57419C15.6182 6.57419 15.5623 6.58418 15.6317 6.59585ZM12.1043 6.59585C12.2228 6.60751 12.409 6.60751 12.5275 6.59585C12.6426 6.58418 12.5478 6.57419 12.3159 6.57419C12.084 6.57419 11.9876 6.58418 12.1043 6.59585ZM16.1412 6.65251C16.2106 6.66417 16.3392 6.66417 16.4238 6.65251C16.5118 6.64084 16.4543 6.63084 16.2969 6.63084C16.1378 6.62918 16.0701 6.63917 16.1412 6.65251ZM13.0911 6.65251C13.1588 6.66417 13.2773 6.66417 13.345 6.65251C13.4161 6.64084 13.3585 6.63084 13.2181 6.63084C13.0776 6.62918 13.0217 6.63917 13.0911 6.65251ZM17.001 6.75415C17.2329 6.79248 17.7187 6.83914 18.0741 6.8558L18.7241 6.8858L17.9048 6.78582C16.9113 6.6625 16.3443 6.64417 17.001 6.75415ZM17.6645 7.15242C17.7051 7.16742 17.7779 7.16742 17.8337 7.15242C17.8896 7.13742 17.8591 7.12409 17.7627 7.12409C17.6679 7.12409 17.6256 7.13742 17.6645 7.15242ZM4.15764 7.52402C4.2135 7.56402 4.30151 7.58568 4.35567 7.57235C4.40814 7.55902 4.73989 7.58901 5.09533 7.63901C5.44908 7.689 6.09396 7.74066 6.52896 7.75232L7.31939 7.77398L6.44433 7.694C5.96532 7.649 5.27644 7.57902 4.9193 7.53902C4.00023 7.43237 4.029 7.43237 4.15764 7.52402ZM7.80009 8.19225C7.80009 8.24724 7.96596 8.27557 7.99643 8.22557C8.01505 8.19558 7.97781 8.17058 7.91518 8.17058C7.85256 8.16892 7.80009 8.18058 7.80009 8.19225ZM5.78083 8.53885C5.83669 8.55385 5.92132 8.55385 5.97886 8.53885C6.03303 8.52552 5.98733 8.51386 5.88069 8.51386C5.77237 8.51386 5.72667 8.52552 5.78083 8.53885ZM6.23275 8.59384C6.28861 8.60884 6.37324 8.60884 6.43079 8.59384C6.48495 8.58051 6.43925 8.56885 6.33262 8.56885C6.22429 8.56885 6.17859 8.58051 6.23275 8.59384ZM6.71175 8.65217C6.78115 8.66383 6.90979 8.66383 6.99442 8.65217C7.08074 8.6405 7.02488 8.63051 6.86747 8.63051C6.71006 8.63051 6.64236 8.6405 6.71175 8.65217ZM7.36171 8.70883C7.44634 8.72049 7.58682 8.72049 7.67145 8.70883C7.75608 8.69716 7.68499 8.68716 7.51573 8.68716C7.34817 8.6855 7.27708 8.69716 7.36171 8.70883ZM6.17351 8.92379C6.21921 8.96712 7.21784 9.11209 7.4768 9.11376C7.86441 9.11542 7.69176 9.01377 7.24492 8.97711C7.00796 8.95878 6.75915 8.93379 6.69652 8.92546C6.49003 8.8938 6.14135 8.89213 6.17351 8.92379ZM7.23476 9.50369C7.49373 9.64367 7.59021 9.642 7.37525 9.50203C7.27877 9.4387 7.16875 9.39204 7.12136 9.39371C7.07566 9.39704 7.12813 9.44703 7.23476 9.50369Z" fill="#EBEEF0"/>
</svg>
